<?xml version="1.0" encoding="UTF-8"?>
<!-- Created with Inkscape (http://www.inkscape.org/) -->
<svg width="115.63" height="30" version="1.1" viewBox="0 0 30.592 7.9377" xmlns="http://www.w3.org/2000/svg" xmlns:cc="http://creativecommons.org/ns#" xmlns:dc="http://purl.org/dc/elements/1.1/" xmlns:rdf="http://www.w3.org/1999/02/22-rdf-syntax-ns#">
 <metadata>
  <rdf:RDF>
   <cc:Work rdf:about="">
    <dc:format>image/svg+xml</dc:format>
    <dc:type rdf:resource="http://purl.org/dc/dcmitype/StillImage"/>
    <dc:title/>
   </cc:Work>
  </rdf:RDF>
 </metadata>
 <g transform="matrix(.59999 0 0 .59999 -11.058 -77.53)">
  <path d="m28.258 129.22-1.0634 4.9866c-0.43187 0.0207-0.8631 0.0465-1.2937 0.0905-1.3484 0.13453-2.6865 0.32878-4.011 0.61101l-3.4609 2.6653c1.3192-0.36645 2.6704-0.57109 4.0289-0.71941 1.1514-0.11477 2.3091-0.14641 3.4654-0.15768 0.24164-1e-3 0.48315-2e-3 0.72479-4e-3 -0.06867 0.27255-0.13828 0.52244-0.20695 0.74718-0.12232 0.42812-0.26864 0.783-0.43989 1.0644-0.15902 0.26909-0.35441 0.46538-0.58682 0.58771-0.22018 0.12231-0.50234 0.18276-0.84484 0.18276-0.24464 0-0.47684-0.0237-0.69702-0.0726-0.20794-0.049-0.39765-0.10461-0.5689-0.16575-0.15902-0.0612-0.28738-0.12252-0.38524-0.18366-0.09785-0.0611-0.15919-0.10361-0.18366-0.12812l-1.3573 2.9171c0.63607 0.53822 1.4742 0.80721 2.5139 0.80721 1.1376 0 2.0795-0.15858 2.8257-0.47662 0.74616-0.31804 1.3578-0.76448 1.8348-1.3394 0.47705-0.57491 0.85557-1.2658 1.1369-2.0731 0.19891-0.57942 0.37353-1.2173 0.53575-1.8823 0.7074-2e-3 1.415-1e-3 2.1224-2e-3l-1.1844 5.5716h3.5774l1.1933-5.5752h0.4811c0.0063-2e-5 0.01254 2e-5 0.01881 0l0.61907 3.5388h1.8895l2.1287-3.5424c0.16664 1e-5 0.33327-1e-5 0.49992 0l-1.179 5.5788h3.5783l1.1862-5.5806c0.84008 1.6e-4 1.6801 6.7e-4 2.5202 1e-3l-0.0439 0.0323c0.66653-1e-3 0.33128-2e-3 1.0043 0 0.02597-1.3e-4 0.05197 1.2e-4 0.07795 0l0.8753 5.5475h2.9538l2.6608-4.6605 0.71493 4.6605h2.9547l3.2315-5.543c0.71755-1e-3 1.4353-1e-3 2.1529 0 0.34464 1.2e-4 0.60788 5e-3 0.82513 7e-3 0.10887 2e-3 0.21804 3.4e-4 0.327 4e-3 0.0035-2e-3 0.0073-5e-3 0.01077-6e-3 0.73714-0.0156 0.7265-0.22063 2.0256-1.3457 1.6822-1.0666 2.2285-1.2753 1.8644-1.2677l-1e-3 2e-3c-0.14303 3e-3 -0.42448 0.0329-0.81348 0.0484-0.18805 3e-3 -0.37637 5e-3 -0.56442 7e-3 -0.05462-6.8e-4 -0.10316 6.8e-4 -0.16037-1e-3 -0.8622 1e-3 -1.7243 3e-3 -2.5865 0-0.53123 2e-3 -1.0626 3e-3 -1.5938 4e-3l2.8776-4.9364h-3.9079l-2.436 4.9436c-0.04838 3e-5 -0.09675 0-0.14513 0l-1.3322-4e-3 2.6662-4.94h-3.2844l-1.8904 4.0182-0.18366-4.0182h-3.2656l0.52411 4.9373c-0.35816-1e-4 -0.7161 1e-3 -1.0742-1e-3 -0.25504 6.7e-4 -0.30469-1.2e-4 -0.37986 0l-0.35478-4.9364h-3.8712l0.78392 4.9705c-0.5384 1.5e-4 -1.0769 2.3e-4 -1.6153 0-0.33986-1.3e-4 -0.67969-1e-3 -1.0195-1e-3l1.0563-4.9696h-3.8899l-3.0909 4.9633c-0.31743 1.6e-4 -0.63491-2e-3 -0.95235-2e-3l-0.96579-4.9614h-3.9079l-1.0527 4.9517c-0.6991-5e-3 -1.3982-7e-3 -2.0973-0.0108l1.0536-4.9409zm29.792 7.4772c0.27534 6.8e-4 0.55069 2e-3 0.82603 2e-3l-0.71762 1.4567zm-6.1065 1e-3c0.26783 6.8e-4 0.53576-3.3e-4 0.80363 0l-0.69881 1.4576z" style="font-feature-settings:normal;font-variant-caps:normal;font-variant-ligatures:normal;font-variant-numeric:normal"/>
 </g>
</svg>
